<svg version="1.0" xmlns="http://www.w3.org/2000/svg"
 width="204.000000pt" height="192.000000pt" viewBox="0 0 204.000000 192.000000"
 preserveAspectRatio="xMidYMid meet">

<g transform="translate(0.000000,192.000000) scale(0.100000,-0.100000)"
fill="#000000" stroke="none">
<path d="M817 1905 c-73 -20 -123 -58 -158 -120 -17 -30 -35 -55 -40 -55 -5 0
-16 -15 -26 -32 -31 -60 -18 -253 29 -453 l22 -90 12 110 c7 61 13 144 14 185
0 80 22 145 62 188 30 31 79 29 180 -8 106 -40 138 -39 228 0 98 43 137 48
171 21 35 -27 52 -95 43 -172 -5 -44 -2 -74 11 -115 13 -41 16 -78 13 -141 -4
-76 -3 -82 9 -59 13 25 35 124 63 283 15 83 9 179 -17 260 -19 60 -79 135
-147 185 l-39 28 -191 -1 c-125 0 -208 -5 -239 -14z"/>
<path d="M633 643 c-22 -33 -23 -105 -3 -420 l13 -223 364 0 363 0 0 298 c0
263 -2 301 -18 332 -24 48 -43 48 -66 -1 -25 -55 -59 -93 -109 -122 -40 -24
-116 -98 -165 -161 l-22 -29 -22 29 c-52 66 -116 129 -166 161 -49 32 -122
123 -122 153 0 20 -30 10 -47 -17z"/>
</g>
</svg>
