<svg width="24" height="25" viewBox="0 0 24 25" xmlns="http://www.w3.org/2000/svg">
<path d="M6.99996 18.3254C5.75223 18.3254 4.55561 17.8513 3.67334 17.0074C2.79107 16.1635 2.29541 15.0189 2.29541 13.8254C2.29541 12.6319 2.79107 11.4873 3.67334 10.6434C4.55561 9.7995 5.75223 9.32539 6.99996 9.32539C7.29464 8.01257 8.15672 6.85887 9.39654 6.11811C10.0104 5.75131 10.6986 5.49694 11.4217 5.3695C12.1449 5.24207 12.8888 5.24407 13.6111 5.37539C14.3333 5.50671 15.0198 5.76478 15.6312 6.13487C16.2427 6.50496 16.7672 6.97981 17.1747 7.53232C17.5823 8.08483 17.8649 8.70417 18.0065 9.35499C18.1481 10.0058 18.1459 10.6753 18 11.3254H19C19.9282 11.3254 20.8185 11.6941 21.4748 12.3505C22.1312 13.0069 22.5 13.8971 22.5 14.8254C22.5 15.7536 22.1312 16.6439 21.4748 17.3003C20.8185 17.9566 19.9282 18.3254 19 18.3254H18M8.99997 15.3254L12 12.3254M12 12.3254L15 15.3254M12 12.3254V21.3254" stroke-width="1.2" stroke-linecap="round" stroke-linejoin="round"/>
</svg>
