<svg width="24" height="25" viewBox="0 0 24 25"  xmlns="http://www.w3.org/2000/svg">
<path d="M12 18.3252H5C4.46957 18.3252 3.96086 18.1145 3.58579 17.7394C3.21071 17.3643 3 16.8556 3 16.3252V6.3252M3 6.3252C3 5.79476 3.21071 5.28605 3.58579 4.91098C3.96086 4.53591 4.46957 4.3252 5 4.3252H19C19.5304 4.3252 20.0391 4.53591 20.4142 4.91098C20.7893 5.28605 21 5.79476 21 6.3252M3 6.3252L12 12.3252L21 6.3252M21 6.3252V13.8252M15 18.3252H21M21 18.3252L18 15.3252M21 18.3252L18 21.3252"  stroke-width="1.2"  stroke-linecap="round" stroke-linejoin="round"/>
</svg>
